<svg id="Component_5_2" data-name="Component 5 – 2" xmlns="http://www.w3.org/2000/svg" width="594.98" height="141.222" viewBox="0 0 594.98 141.222">
  <text id="BeTheHero" transform="translate(58.156 121.221)" fill="#1fc742" font-size="67" font-family="NSimSun" letter-spacing="-0.006em"><tspan x="0" y="0">BeThe</tspan><tspan y="0" fill="#ff2826" font-size="141">Hero</tspan></text>
  <path id="Hulk" d="M219.327,50.855a3.349,3.349,0,0,1,.019,2.092A6.034,6.034,0,0,1,217,56.4a2.56,2.56,0,0,1-1.618.314,13.241,13.241,0,0,0-2.157.586,4.889,4.889,0,0,1-3.645-.293c-.223-.126-.372.042-.521.23a10,10,0,0,0-1.562,2.8,11.691,11.691,0,0,1-4.686,5.46,4.951,4.951,0,0,1-2.808,1.171.8.8,0,0,0-.558.377,3.619,3.619,0,0,1-2.064,1.36,1.359,1.359,0,0,0-.725.481,7.728,7.728,0,0,1-2.045,1.653c-1.562.879-1.6.879-1.506,2.8a9.031,9.031,0,0,1-.391,3.159,5.187,5.187,0,0,0-.223,2.824c.26,1.025,0,2.134.2,3.2a13.576,13.576,0,0,1-.074,5.543,9.916,9.916,0,0,1-1.023,2.824,19.34,19.34,0,0,0-1.655,4.811c-.223.92-.391,1.841-.539,2.761-.13.9-.167,1.841-.353,2.7-.391,1.841-.558,3.682-.781,5.564a16.625,16.625,0,0,0,.242,5.752,32.225,32.225,0,0,1,.744,8.242c-.019,1,.074,1.987.13,2.991a18.012,18.012,0,0,1-.186,2.824,22.869,22.869,0,0,0-.093,3.912,4.272,4.272,0,0,1-.465,2.364,10.065,10.065,0,0,0-1.041,4.414,6.015,6.015,0,0,1-.483,1.862c-.149.439-.242.9-.353,1.339-.074.335-.372.858-.26,1.192.056.167.149.335.186.5a1.859,1.859,0,0,1-.409,1.088,5.092,5.092,0,0,0-.428,2.05,8.8,8.8,0,0,0-.223,2.406,4.054,4.054,0,0,1-.167,2.657c-.465.9-1.116,1.673-1.636,2.552a22.657,22.657,0,0,1-4.63,5.062c-1.915,1.757-3.756,3.64-5.746,5.271a4.26,4.26,0,0,0-1.432,2.991,11.705,11.705,0,0,1-2.176,5.69,1.407,1.407,0,0,0-.316.753c-.112,1.778-1.246,2.573-2.51,3.263a10.624,10.624,0,0,1-1.841.983c-.149.042-.149.251-.2.4a1.516,1.516,0,0,1-2.492.565c-.242-.272-.279-.084-.409.084a1.585,1.585,0,0,1-2.771-.084,1.5,1.5,0,0,1,.149-1.9,5.834,5.834,0,0,0,.986-2.28c.019-.084.037-.188-.037-.251-.093-.084-.186,0-.26.063a1.566,1.566,0,0,0-.391.795,4.73,4.73,0,0,1-1.171,2.05,1.783,1.783,0,0,1-1.99.69,2.185,2.185,0,0,1-1.339-1.924,5.088,5.088,0,0,1,.3-2.468,2.2,2.2,0,0,1,.986-1.192c.688-.377.911-1.192,1.209-1.924a22.948,22.948,0,0,0,.632-2.217,5.651,5.651,0,0,1,2.176-2.761,7.012,7.012,0,0,0,1.99-1.987,4.265,4.265,0,0,0,.446-.941,15.754,15.754,0,0,1,1.116-2.949c.483-.879.483-1.924.893-2.824a3.306,3.306,0,0,1,.986-1.213c.316-.23,1.116-.335,1.19-.774a4,4,0,0,0,.167-1.987,35.845,35.845,0,0,1-1.023-3.514,2.24,2.24,0,0,1,0-1.213c.316-.92.651-1.82,1-2.719.186-.46.6-.69.911-1a3.785,3.785,0,0,0,.893-1.234,4.115,4.115,0,0,1,.539-.941c.2-.251.5-.46.558-.837a2.87,2.87,0,0,0-.019-.565c-.019-.377.279-.586.428-.9a1.676,1.676,0,0,0,.037-1.339,6.928,6.928,0,0,1-.316-2.468,27.846,27.846,0,0,0-.5-5.962,7.686,7.686,0,0,1-.074-1.13c-.019-.941-.037-1.9-.056-2.845a.893.893,0,0,0-.279-.711c-.632-.628-1.209-1.318-1.785-2.008a3.031,3.031,0,0,0-.893-.711c-.8-.439-1.3-.356-1.785.46-.391.648-.874,1.171-1.3,1.778a.408.408,0,0,1-.223.188c-.428.188-.855.439-1.283.586a2.774,2.774,0,0,0-1.45,1.15,11.179,11.179,0,0,0-.986,1.82,4.039,4.039,0,0,1-2.938,2.28,2.078,2.078,0,0,0-1.767,1.36,21.961,21.961,0,0,0-1.246,6.777,7.244,7.244,0,0,1-1.822,4.727,1.933,1.933,0,0,0-.446,1.422,3.23,3.23,0,0,1-1.99,3.305,1.279,1.279,0,0,1-1.711-.293,2.529,2.529,0,0,1-.558-2.155,4.05,4.05,0,0,1,.335-1.15,4.009,4.009,0,0,1,.242-.5,1.27,1.27,0,0,0,.316-.565c.056-.356-.149-.92-.539-.795a.61.61,0,0,0-.335.293,3,3,0,0,0-.446,1.8,2.6,2.6,0,0,1-.093,1.506,1.3,1.3,0,0,1-2.027.481,1.525,1.525,0,0,1-.521-1.318c.019-.356-.037-.46-.391-.377-.651.167-1.172-.188-1.395-.962a.74.74,0,0,0-.558-.628c-.6-.146-.707-.732-.762-1.3-.037-.377-.093-.628-.428-.774a.878.878,0,0,1-.446-.879,5.7,5.7,0,0,1,.762-3.138,4.841,4.841,0,0,0,.781-1.715,26.15,26.15,0,0,1,2.622-6.234,4.864,4.864,0,0,1,.3-.544,2.408,2.408,0,0,0,.13-2.426,5.943,5.943,0,0,1-.353-2.217c-.074-.941-.13-1.862-.2-2.8a7.481,7.481,0,0,1-.279-1.9c.112-.669.372-1.3.483-1.987a16.237,16.237,0,0,0,.3-2.3,3.521,3.521,0,0,0,.242-2.092.43.43,0,0,1,.056-.418,14.42,14.42,0,0,0,1.45-2.615,22.86,22.86,0,0,1,2.7-3.807,12.153,12.153,0,0,1,1.711-1.778,6.077,6.077,0,0,0,1.357-1.778,3.8,3.8,0,0,1,1.878-1.82,22.582,22.582,0,0,0,4.407-2.531.922.922,0,0,0,.353-.418,6.662,6.662,0,0,0,.837-3.619,14.485,14.485,0,0,1,.037-2.2,1.9,1.9,0,0,0-.818-1.757,5.159,5.159,0,0,1-1.543-1.653c-.186-.335-.3-.293-.576-.063-1.3,1.15-2.548,2.385-3.924,3.389a7.956,7.956,0,0,1-2.231,1.15c-.409.146-.855.188-1.264.335a3.046,3.046,0,0,0-.6.251c-.167.1-.316.335-.5.4-.781.251-1,1.046-1.339,1.715-.112.209-.037.377.074.586a2.268,2.268,0,0,0,1.506,1.046,2.743,2.743,0,0,1,1.86,1.443,5.824,5.824,0,0,0,.948,1.13,1.606,1.606,0,0,1,.428,1.192c-.019.941-.112,2.113-.874,2.678-.948.69-2.306.021-2.975-.858a1.78,1.78,0,0,0-1.45-.879,1.5,1.5,0,0,1-.6-.167,1.025,1.025,0,0,0-1.376.377.549.549,0,0,1-.13.167c-1.134.795-2.083,2.05-3.607,1.8a7.027,7.027,0,0,0-1.748-.209.836.836,0,0,0-.725.4,1.92,1.92,0,0,1-.762.628c-.3.188-.372.377-.167.732a2.321,2.321,0,0,1-.353,2.636c-.2.293-.967.314-1,.586a1.038,1.038,0,0,0,.074.418c.279.879-.446,1.234-1.079,1.234a1.087,1.087,0,0,0-.521.042c-1.339.628-2.455-.1-3.607-.69-.2-.1-.372-.335-.576-.356-.837-.1-1.153-.711-1.32-1.527-.335-1.611-.93-3.159-1.227-4.79a2.782,2.782,0,0,1,.223-1.778,5.18,5.18,0,0,0,.279-2.719,1.777,1.777,0,0,1,.428-1.443,2.527,2.527,0,0,0,.893-1.4,2.418,2.418,0,0,0,.019-.732,2.638,2.638,0,0,1,.6-2.217,1.234,1.234,0,0,0,.335-.69,9.249,9.249,0,0,1,1.841-4.518,3.662,3.662,0,0,0,.446-1.046,3.875,3.875,0,0,1,2.362-2.531,5.228,5.228,0,0,0,3.2-2.908c.465-1.025,1.041-2.008,1.506-3.054a6.111,6.111,0,0,1,2.641-2.782,14.518,14.518,0,0,1,1.674-1.067c.707-.314,1.32-.648,1.99-1.025a.839.839,0,0,0,.372-.648A13.633,13.633,0,0,1,149.986,66a8.37,8.37,0,0,1,5.82-2.573c.428-.021.855,0,1.283,0a.521.521,0,0,0,.576-.439c.651-2.447,2.269-4.058,3.812-5.773,1.729-1.924,3.9-3.054,5.895-4.518a.962.962,0,0,0,.428-.858c0-.628-.2-1.234-.2-1.862a.939.939,0,0,1,.3-.858.781.781,0,0,0,.2-1.025,4.184,4.184,0,0,1-.2-1.339,6.062,6.062,0,0,1-.093-1.736c.037-.4.446-1.088.019-1.339-.335-.188-.167-.356-.149-.711.074-.753,1.023-.795.911-1.653-.019-.188.353-.23.576-.293s.576-.314.223-.565c-.112-.084-.614-.042-.6-.293.019-.126.112-.126.186-.1.744.188,1.134-.251,1.432-.941.056-.146.3-.418.428.021.037.126.13.063.2.042s.167-.1.112-.188c-.26-.335.2-.46.167-.753-.019-.146.167-.042.279-.021a1.906,1.906,0,0,0,1.32.042,2.93,2.93,0,0,1-.335-.209c.037-.063.056-.126.093-.126a1.578,1.578,0,0,1,.93.1.585.585,0,0,0,.688-.167,1.208,1.208,0,0,1,1.19-.356,10.526,10.526,0,0,0,2.436.063c.149-.021.372-.146.316.23a.228.228,0,0,0,.2.251c.279.063.5.293.762.293a1.8,1.8,0,0,1,1.19.544.493.493,0,0,0,.762.021c.186.209-.056.481.167.669.26-.1.26-.5.521-.628a.5.5,0,0,1-.019.46.914.914,0,0,0,.353,1.234c.074.063.223.1.149.23-.391.648-.112.879.576.962-.762.377-.26.941-.279,1.381-.019.418.465.816.074,1.276.037-.042.093.418.074.5-.037.167-.149.293-.186.46a11.7,11.7,0,0,0-.093,2.28,18.267,18.267,0,0,1-.335,2.468,3.375,3.375,0,0,1-.093.418c-.056.293-.093.628.13.795.2.146.353-.146.521-.251a7.359,7.359,0,0,1,5.486-.941,4.245,4.245,0,0,1,1.785.858,3.26,3.26,0,0,0,.948.5c.3.126.688.4.967.272a12.307,12.307,0,0,0,3.384-2.406A6.6,6.6,0,0,1,199.5,47.8a6.816,6.816,0,0,0,2.957-1.339.28.28,0,0,0,.13-.314,4.3,4.3,0,0,0-.074-.481,2.811,2.811,0,0,1,2.306-3.41,3.948,3.948,0,0,0,1.8-.858,4.14,4.14,0,0,1,1.339-.879,1.57,1.57,0,0,0,.725-.586,3.566,3.566,0,0,1,2.045-1.255,13.149,13.149,0,0,1,3.124-.356c.874.042,1.227.314,1.469,1.276a6.032,6.032,0,0,1,.26,1.255c.037.628.353.795.818.795a4.884,4.884,0,0,1,1.227.209,1.553,1.553,0,0,1,.911,2.28,1.529,1.529,0,0,0,.223,1.883,2.607,2.607,0,0,1,.5,2.97A2.672,2.672,0,0,0,219.327,50.855Z" transform="translate(375.445 -37.486)" fill="#1fc742"/>
  <path id="Path_1" data-name="Path 1" d="M230.285-1228.713c-4.508.285-6.078.876-5.293,2,.5.706,4.508,1.172,10.074,1.172,5.225,0,9.152-.41,9.96-1.047a.772.772,0,0,0,0-1.207c-.831-.66-4.849-1.059-10.3-1.025C233.062-1228.816,231.07-1228.759,230.285-1228.713Zm10.643,1.241c.694.08,1.457.171,1.707.216.421.08.376.091-.581.216a69.527,69.527,0,0,1-14.559-.08c-.41-.08-.33-.1.728-.228.649-.091,1.8-.193,2.561-.239C232.664-1227.712,239.379-1227.632,240.927-1227.473Z" transform="translate(-211.538 1230.928)" fill="#aaa"/>
  <path id="Path_2" data-name="Path 2" d="M130.352-1194.244a6.332,6.332,0,0,0-2.96,1.013c-2.55,1.3-4.166,3.472-5.407,7.274a17.628,17.628,0,0,1-1.73,4.189,4.225,4.225,0,0,0-.489.808,14.347,14.347,0,0,1-2,1.582c-.114.08.046.012.353-.159a9.1,9.1,0,0,0,2.2-1.753,8.639,8.639,0,0,1,.729-.683c.023,0,.011.694,0,1.537a9.3,9.3,0,0,0,.444,3.665c.285.74.831,1.4,1.172,1.4.148,0,.421.216.717.558a3.953,3.953,0,0,0,.865.74,1.985,1.985,0,0,0,1.434.08c.137-.08.387-.011.911.251a3.255,3.255,0,0,0,1.377.375,2.177,2.177,0,0,1,1.5.547,2.836,2.836,0,0,1-.023,1.445c-.091.171-.239.216-.672.216a9.538,9.538,0,0,1-2.629-.512,9.775,9.775,0,0,0-3.347.046,3.948,3.948,0,0,0-1.787,1.8c-.159.341-.353.592-.455.6a8,8,0,0,1-2.584-.842c-1.651-.933-2.106-1.525-2.868-3.79l-.387-1.138.159-.979c.137-.9.114-1.252-.068-1.07a5.929,5.929,0,0,0-.33.785l-.262.717-.08-.66c-.08-.649-.216-.785-.489-.512-.1.1-.137.091-.137-.057,0-.273-.307-.239-.4.034a2.054,2.054,0,0,0,0,.706,2.453,2.453,0,0,1-.034.831l-.1.341-.125-.3a4.6,4.6,0,0,1-.194-.82c-.08-.524-.33-.728-.467-.376a.216.216,0,0,1-.273.1c-.364-.1-.353.171.057,1.161.581,1.411.489,1.525-.159.2a7.126,7.126,0,0,0-.694-1.229.289.289,0,0,0-.307.091c-.159.159-.159.251-.034.717s.137.535-.046.638c-.148.08-.182.194-.137.41l.068.307-.273-.33c-.182-.216-.341-.307-.455-.262-.2.08-.216.25-.08.956.1.558.068.58-.285.25a.55.55,0,0,0-.433-.182c-.273.114-.216.626.148,1.4.581,1.229.581,1.252-.159.774-.467-.3-.683-.376-.774-.285s-.046.2.148.41c.216.239.239.285.08.285-.273,0-.239.273.08.649a.7.7,0,0,1,.216.649c-.057.285,0,.4.41.74a2.035,2.035,0,0,1,.569.774c.1.364.1.376-.25.387a3.692,3.692,0,0,1-.535-.011c-.774-.125-.706.148.159.694a5.037,5.037,0,0,1,.751.524,1.122,1.122,0,0,1-.455.011c-.774-.046-.751.239.046.592.25.114.376.216.273.216-.376.023-.216.33.216.433.319.068.433.159.433.319,0,.182.125.25.558.341.478.1.524.136.364.273-.2.171-.125.4.1.307a.314.314,0,0,1,.273.08.982.982,0,0,0,.569.1c.4-.023.433-.011.387.228s.023.285.41.41a1.037,1.037,0,0,0,.865-.023c.228-.1.421-.125.455-.057.1.148.512.125,1.15-.057.307-.091.82-.216,1.127-.3a7.018,7.018,0,0,0,2.743-1.764l.694-.683.08,1.707c.068,1.548.182,2.755.524,5.634.068.535.159,1.6.228,2.391s.159,1.707.228,2.049c.228,1.15.148,2.345-.4,5.748l-.535,3.3-.1,5.464c-.046,3.005-.137,5.646-.2,5.862a16.913,16.913,0,0,1-.922,2.39,8.465,8.465,0,0,0-.489,1.252,2.764,2.764,0,0,0-.171,1.594c.057.41.114,1.093.125,1.536a4.734,4.734,0,0,0,.114.968.506.506,0,0,1-.137.444l-.216.273-.194-.387c-.114-.216-.785-1.264-1.491-2.345a22.5,22.5,0,0,1-1.3-2.072,4.444,4.444,0,0,0-.489-.831,28.677,28.677,0,0,1-2.425-5.27c-.3-.876-.558-1.616-.581-1.639a1.461,1.461,0,0,0-.546-.057c-.6-.011-.626.068-.3.911.114.307.4,1.036.626,1.628l.41,1.07-.376-.33a4.686,4.686,0,0,0-.694-.546c-.319-.2-.33-.2-.6.08s-.285.284-.08.6a8.348,8.348,0,0,0,.785.9,20.356,20.356,0,0,1,2.777,3.415c.4.626.911,1.366,1.15,1.651a19.563,19.563,0,0,1,2.618,4.394,8.964,8.964,0,0,1-1.116,1.263,20.48,20.48,0,0,0-1.434,1.616l-.33.478.125,1c.159,1.138.1,1.377-1.07,4.849a21.369,21.369,0,0,0-1.07,5.043c0,.432.546.99,1.992,2.037.626.455,1.639,1.286,2.254,1.855a5.949,5.949,0,0,0,1.32,1.024,14.834,14.834,0,0,0,1.787-.58,25.173,25.173,0,0,1,2.493-.808c.5-.125,1.343-.364,1.878-.535.968-.307.968-.307,1.48-1.07.285-.41.637-.956.785-1.218l.285-.455.25,1c.137.546.455,1.719.717,2.607s.512,1.935.581,2.333a15.971,15.971,0,0,0,.478,1.844l.364,1.115-.433,3.1c-.239,1.7-.637,4.337-.876,5.874s-.649,4.2-.9,5.919a20.225,20.225,0,0,1-.8,4.041,22.587,22.587,0,0,0-1.138,3.642,19.842,19.842,0,0,1-.706,2.333,8.14,8.14,0,0,0-.774,3.142,1.768,1.768,0,0,0,.376,1.366,2.116,2.116,0,0,0,2.083,1,2.81,2.81,0,0,0,1.548-.364,3.85,3.85,0,0,0,1.912-2.208,6.22,6.22,0,0,0,.683-3.119,2.8,2.8,0,0,1,.114-1.013,5.71,5.71,0,0,0,.82-1.594c.125-.342.182-.433.148-.228-.421,2.516-.512,5.111-.2,5.885.74,1.912,2.049,2.584,3.551,1.844a3.759,3.759,0,0,0,1.673-2.049,10.48,10.48,0,0,0-.524-5.168,7.284,7.284,0,0,1-.341-2.049,12,12,0,0,0-.171-1.764c-.239-1.343-.2-3.847.114-8.935.41-6.408.467-7.08.8-8.537a18.853,18.853,0,0,0,.5-6.579c-.125-.763-.125-.8.512-2.982.512-1.81,1.639-6.226,1.8-7.092.023-.148.467-.376,1.628-.808,1.343-.512,3.642-1.525,4.269-1.878.273-.159.193-2.265-.159-4-.3-1.446-1.309-5.088-2.345-8.366-.319-1-.785-2.527-1.036-3.392l-.455-1.582.353-1.093a9.65,9.65,0,0,1,1.286-2.686,6.528,6.528,0,0,0,.808-2.117,5.662,5.662,0,0,1,.717-1.161c.615-.808,1.3-1.559,4.974-5.441,2.538-2.686,5.088-6.158,5.418-7.376a1.071,1.071,0,0,0-.114-.99,32.97,32.97,0,0,0-4.895-4.713c-1.753-1.423-1.73-1.411-1.309-1.32.194.034.649.148,1.036.251.535.136.751.148.945.046s.307-.091.581.045c.467.239,1.252.011,1.252-.364,0-.228.057-.262.444-.262a.892.892,0,0,0,.524-.114.359.359,0,0,1,.3-.114c.273,0,.285-.171.023-.285-.148-.068-.057-.125.364-.216.444-.1.569-.171.569-.353,0-.159.114-.25.433-.319.433-.1.592-.41.228-.432-.114,0,.023-.114.307-.25.672-.33.694-.6.034-.558a1.287,1.287,0,0,1-.489-.011,4.271,4.271,0,0,1,.74-.535c.41-.273.728-.546.706-.615s-.3-.114-.74-.091l-.694.046.1-.376a2.538,2.538,0,0,1,.637-.854c.455-.421.5-.512.387-.728-.1-.194-.08-.3.159-.581.342-.4.376-.672.1-.672-.159,0-.148-.034.057-.262.262-.285.33-.535.137-.535a3.489,3.489,0,0,0-.751.4c-.729.467-.729.444-.148-.785.535-1.127.353-1.81-.319-1.2l-.285.273.08-.774c.068-.683.057-.763-.125-.763a.863.863,0,0,0-.478.307c-.25.307-.262.307-.194.057a.464.464,0,0,0-.1-.467c-.159-.182-.171-.273-.046-.74.1-.387.1-.558.011-.649-.25-.25-.5.011-1.024,1.093a4.753,4.753,0,0,1-.581,1.036,5.542,5.542,0,0,1,.364-1.093,4.133,4.133,0,0,0,.353-1.15.408.408,0,0,0-.285-.1.389.389,0,0,1-.285-.114c-.171-.285-.353-.068-.478.581-.228,1.172-.421,1.07-.433-.216,0-.74-.034-.876-.193-.911-.137-.023-.2.034-.2.159,0,.159-.034.171-.137.068-.285-.285-.433-.148-.433.421,0,.774-.148.808-.376.091-.41-1.275-.637-1.172-.41.171l.171.945-.421,1.252c-.239.683-.512,1.446-.6,1.673-.467,1.116-2.652,2.55-4.28,2.823a7,7,0,0,1-3.358-.3,13.537,13.537,0,0,0-4.462-1.013,2.385,2.385,0,0,1-1.776-.842,2.107,2.107,0,0,1-.193-1c0-.9.262-1.172,1.127-1.172a2.569,2.569,0,0,0,1.047-.228,1.671,1.671,0,0,1,1.161-.159,2.026,2.026,0,0,0,1.981-.808c.285-.353.353-.387.717-.33a.643.643,0,0,0,.706-.239c.706-.706,1.047-2.254,1.047-4.781a12.081,12.081,0,0,0-.307-3.358c-.5-2.254-.489-2.186-.159-1.651a14.5,14.5,0,0,1,1,3.415,15.368,15.368,0,0,1,0,3.073c-.046.182-.137.33-.216.307-.171-.034-.182.364-.023.672.182.319.33.262.535-.216a4.724,4.724,0,0,0,.171-1.958,14.652,14.652,0,0,0-1.912-7.183,17.171,17.171,0,0,0-3.517-5.031,12.321,12.321,0,0,0-4.417-2.3A22.391,22.391,0,0,0,130.352-1194.244Zm-21.172,23.6c.148.16.239.285.2.285a1.506,1.506,0,0,1-.319-.285c-.148-.159-.239-.285-.2-.285A1.515,1.515,0,0,1,109.18-1170.648Zm46.783-.023a1.38,1.38,0,0,1-.25.262l-.262.216.216-.262C155.872-1170.693,155.963-1170.761,155.963-1170.671Zm-15.72,7.558a10.633,10.633,0,0,1,2.174,1.685,55.707,55.707,0,0,0,4.838,4.041l1.548,1.15-.262.467c-.148.262-1.059,1.628-2.015,3.039-1.81,2.641-3.4,5.043-4.906,7.376a7.426,7.426,0,0,1-1.594,1.935l-.728.6-.546-2.072c-.3-1.15-.569-2.345-.6-2.652s-.114-.877-.182-1.252c-.581-3.711-.592-3.825-.41-5.134.1-.683.216-1.628.25-2.094s.125-1.093.182-1.389.148-1.07.216-1.741a4.393,4.393,0,0,1,.455-1.844,2.782,2.782,0,0,0,.341-.933,3.5,3.5,0,0,1,.637-1.491A3.145,3.145,0,0,1,140.243-1163.112Zm.626,24.473c-.148.808-.228.922-.319.455-.08-.421.068-.876.285-.876C140.9-1139.061,140.915-1138.9,140.869-1138.639Zm-21.673,8.924a1.146,1.146,0,0,1,.046.706c-.057.387-.091.432-.171.25a2.727,2.727,0,0,1-.046-1.2A.6.6,0,0,1,119.2-1129.715Zm12.339,47.4.057.569-.262-.512c-.137-.285-.353-.672-.467-.865-.216-.364-.216-.364.114-1.2l.341-.842.08,1.138C131.433-1083.4,131.5-1082.636,131.535-1082.318Zm.034,2.812c-.034.091-.068.057-.068-.068s.023-.194.057-.148A.231.231,0,0,1,131.57-1079.506Z" transform="translate(-108.304 1200.34)" fill="#ff2826"/>
  <path id="Path_3" data-name="Path 3" d="M216.807-52.511a30.459,30.459,0,0,0-6.761.854c-.706.3-.785.82-.171,1.138,1.434.74,8.856,1.241,14.82.99,6.113-.262,8.731-.706,8.731-1.491,0-.956-3.642-1.468-10.984-1.548C220.313-52.591,217.775-52.568,216.807-52.511Z" transform="translate(-197.947 188.575)" fill="#202020"/>
</svg>
